<svg width="64" height="85" viewBox="0 0 64 85" fill="none" xmlns="http://www.w3.org/2000/svg">
<path d="M10.6667 0C7.83773 0.000137753 5.1247 1.1196 3.12435 3.11214C1.12399 5.10469 0.000138293 7.80712 0 10.625V74.375C0 77.1929 1.12381 79.8954 3.12419 81.888C5.12458 83.8806 7.83769 85 10.6667 85C13.4956 85 16.2088 83.8806 18.2091 81.888C20.2095 79.8954 21.3333 77.1929 21.3333 74.375V10.625C21.3332 7.80712 20.2093 5.10469 18.209 3.11214C16.2086 1.1196 13.4956 0.000137753 10.6667 0Z" fill="#F8F8FF"/>
<path d="M53.3333 0C50.5044 0.000137753 47.7913 1.1196 45.791 3.11214C43.7906 5.10469 42.6668 7.80712 42.6666 10.625V74.375C42.6666 77.1929 43.7904 79.8954 45.7908 81.888C47.7912 83.8806 50.5043 85 53.3333 85C56.1623 85 58.8754 83.8806 60.8758 81.888C62.8762 79.8954 64 77.1929 64 74.375V10.625C63.9998 7.80712 62.876 5.10469 60.8756 3.11214C58.8753 1.1196 56.1622 0.000137753 53.3333 0Z" fill="#F8F8FF"/>
</svg>
