<svg width="100" height="76" viewBox="0 0 100 76" fill="none" xmlns="http://www.w3.org/2000/svg">
<path d="M72.2 17.5C70.6 15.4 67.5 14.9 65.2 16.5C64.1 17.3 63.4 18.4 63.2 19.8C63 21 63.3 22.3 64.1 23.3H64C65.6 24.9 68.1 30.7 68.1 37.5C68.1 45 65.2 50.6 64 52.6L63.9 52.8C63.3 53.6 63 54.5 63 55.5C63 57.1 63.9 58.7 65.2 59.5C66.1 60.1 67 60.3 68 60.3C69.5 60.3 71.1 59.6 72.2 58.4C73 57.2 78 49.1 78 37.7C78.1 25.2 72.3 17.6 72.2 17.5Z" fill="#E2E2E2"/>
<path d="M92 7.89997C91.1 6.69997 89.8 5.89997 88.2 5.59997C86.8 5.39997 85.3 5.79997 84.1 6.69997C81.6 8.59997 81.1 12.4 82.9 15C83.9 16.2 88.7 24.7 88.7 37.2C88.7 51 82.8 60.7 82.8 60.8C82.2 61.9 81.9 63 81.9 64.2C81.9 66.2 82.9 68 84.4 69.2C85.3 69.9 86.3 70.2 87.5 70.2C87.6 70.2 87.8 70.2 87.9 70.1C88.1 70.1 88.4 70 88.6 70C90 69.8 91.2 68.9 92 67.5C93.9 64.4 99.9 53.1 99.9 37.1C100 21.2 93.9 10.7 92 7.89997Z" fill="#E2E2E2"/>
<path d="M49.6 0C48.8 0 48 0.3 47.3 0.7L22.7 21.7H5.5C2.4 21.7 0 24.1 0 27.2V48.4C0 51.5 2.4 53.9 5.5 53.9H22.7L47 74.6L47.5 75C48.2 75.4 49 75.7 49.8 75.7C52.3 75.7 54.4 73.7 54.1 71.1V4.4C54 2 52 0 49.6 0Z" fill="#E2E2E2"/>
</svg>
